<svg width="128" height="50" viewBox="0 0 128 50" fill="none" xmlns="http://www.w3.org/2000/svg">
<path fill-rule="evenodd" clip-rule="evenodd" d="M39.4368 38C34.5288 25.7432 28.8 22.5128 28.8 16.4V9.19999H30C30.3183 9.19999 30.6235 9.07357 30.8485 8.84852C31.0736 8.62348 31.2 8.31825 31.2 7.99999V5.59999C31.2 5.28173 31.0736 4.97651 30.8485 4.75147C30.6235 4.52642 30.3183 4.39999 30 4.39999H18C17.6817 4.39999 17.3765 4.52642 17.1515 4.75147C16.9264 4.97651 16.8 5.28173 16.8 5.59999V7.99999C16.8 8.31825 16.9264 8.62348 17.1515 8.84852C17.3765 9.07357 17.6817 9.19999 18 9.19999H19.2V16.4C19.2 22.5128 13.4712 25.7432 8.5632 38C7.0008 41.9 2.988 47.6 24 47.6C45.012 47.6 40.9992 41.9 39.4368 38ZM35.556 42.2024C33.8712 42.7064 30.5184 43.28 24 43.28C17.4816 43.28 14.1288 42.7064 12.444 42.2024C11.8464 42.0248 11.6136 41.3312 11.8248 40.6952C12.3528 39.0872 13.3488 36.308 15.2112 33.2048C19.7616 25.6232 24.4824 34.3976 28.4112 34.3976C32.34 34.3976 31.2624 30.6512 32.7888 33.2048C34.1934 35.5675 35.3293 38.0799 36.1752 40.6952C36.3864 41.3312 36.1536 42.0224 35.556 42.2024Z" fill="#2385C7"/>
<path d="M65.544 20.386C65.544 20.35 65.454 20.134 65.31 19.756C65.148 19.378 64.932 19.126 64.68 19.018C64.284 18.37 63.96 17.272 63.69 15.76C63.582 15.13 63.402 13.888 63.186 12.052C62.97 10.288 62.7 8.884 62.34 7.804C62.214 7.426 61.98 7.228 61.656 7.228C61.368 7.228 61.17 7.354 61.044 7.588C60.072 9.316 59.226 11.458 58.506 14.032C57.408 12.538 56.472 10.144 55.68 6.85C55.572 6.436 55.338 6.22 54.978 6.22C54.636 6.22 54.402 6.364 54.276 6.634C54.006 7.21 53.736 7.858 53.484 8.596C53.304 8.488 53.142 8.434 52.998 8.434C52.512 8.434 52.278 8.686 52.278 9.154C52.278 9.298 52.278 9.478 52.296 9.694C52.296 9.946 52.314 10.126 52.314 10.252C52.314 10.9 52.242 11.71 52.134 12.718C51.99 14.068 51.918 14.914 51.918 15.274C51.918 15.958 51.972 16.588 52.116 17.128C52.314 17.848 52.602 18.208 52.962 18.208C53.394 18.208 53.61 17.848 53.646 17.128C53.682 15.796 53.772 14.536 53.916 13.366C54.078 12.016 54.366 10.576 54.78 9.046C54.996 10.126 55.41 11.314 56.022 12.61C56.652 14.014 57.3 15.04 57.966 15.724C58.29 16.084 58.596 16.246 58.866 16.246C59.226 16.246 59.478 16.012 59.586 15.508C59.964 13.852 60.576 11.962 61.404 9.874C61.746 12.826 61.962 14.59 62.07 15.184C62.43 17.344 62.934 18.982 63.546 20.062C63.942 20.782 64.356 21.16 64.77 21.16C64.968 21.16 65.148 21.07 65.31 20.926C65.454 20.746 65.544 20.566 65.544 20.386ZM69.9291 6.292C69.9291 5.536 69.6231 5.14 69.0111 5.068C68.5071 5.248 68.2551 5.518 68.2551 5.896C68.2551 6.652 68.5071 7.12 69.0291 7.3C69.1731 7.354 69.2811 7.372 69.3351 7.372C69.7311 7.372 69.9291 7.012 69.9291 6.292ZM69.1011 13.258C69.1011 12.502 68.7051 12.124 67.9131 12.124C67.6251 12.268 67.4991 12.466 67.4991 12.7C67.4991 12.772 67.5171 12.916 67.5531 13.132C67.0671 15.166 66.8331 16.534 66.8331 17.236C66.8331 18.712 67.2291 19.45 68.0571 19.45C68.1651 19.45 68.2731 19.396 68.3811 19.288C68.4891 19.18 68.5611 19.09 68.5611 18.982C68.5611 18.658 68.4351 18.388 68.2011 18.172C68.2371 17.092 68.4351 15.868 68.7951 14.464L69.1011 13.258ZM78.1621 13.834C78.1621 13.564 78.0361 13.348 77.8201 13.168C77.6041 13.006 77.3701 12.916 77.1181 12.898C75.6601 13.708 74.2921 14.896 73.0141 16.444C73.0141 15.544 73.1041 14.626 73.2841 13.672C73.3741 13.24 73.4641 12.844 73.5541 12.484C73.5541 12.196 73.4641 11.944 73.2841 11.71C73.1041 11.512 72.8701 11.404 72.6001 11.404C72.3841 11.404 72.2581 11.548 72.1861 11.8C71.7901 13.258 71.5921 14.68 71.5921 16.084C71.5921 18.226 71.9521 19.288 72.7081 19.288C72.8881 19.288 73.0681 19.126 73.2481 18.838C73.3561 18.622 73.4641 18.388 73.5901 18.172C74.2021 17.164 75.2461 16.102 76.7401 14.968L76.4701 17.272C76.3981 17.938 76.3621 18.28 76.3621 18.298C76.3621 18.586 76.4521 18.838 76.6321 19.072C76.8121 19.288 77.0281 19.396 77.2981 19.396C77.5501 19.396 77.6941 19.216 77.7301 18.892C78.0181 16.354 78.1621 14.662 78.1621 13.834ZM83.4643 6.292C83.4643 5.536 83.1583 5.14 82.5463 5.068C82.0423 5.248 81.7903 5.518 81.7903 5.896C81.7903 6.652 82.0423 7.12 82.5643 7.3C82.7083 7.354 82.8163 7.372 82.8703 7.372C83.2663 7.372 83.4643 7.012 83.4643 6.292ZM82.6363 13.258C82.6363 12.502 82.2403 12.124 81.4483 12.124C81.1603 12.268 81.0343 12.466 81.0343 12.7C81.0343 12.772 81.0523 12.916 81.0883 13.132C80.6023 15.166 80.3683 16.534 80.3683 17.236C80.3683 18.712 80.7643 19.45 81.5923 19.45C81.7003 19.45 81.8083 19.396 81.9163 19.288C82.0243 19.18 82.0963 19.09 82.0963 18.982C82.0963 18.658 81.9703 18.388 81.7363 18.172C81.7723 17.092 81.9703 15.868 82.3303 14.464L82.6363 13.258ZM98.1736 17.308C98.1736 16.84 97.9216 16.606 97.4536 16.606C97.0936 16.606 96.8596 16.768 96.7696 17.092C96.0316 17.488 95.2576 17.686 94.4476 17.686C93.7276 17.686 93.2416 17.524 92.9896 17.182C92.7196 16.858 92.5936 16.21 92.5936 15.274C92.5936 13.474 93.2056 10.702 94.4476 6.958C94.5376 6.706 94.5916 6.49 94.5916 6.328C94.5916 5.86 94.3576 5.626 93.8896 5.626C93.5296 5.626 93.2236 5.914 92.9896 6.472C92.5576 7.462 92.1436 8.974 91.7116 10.99C91.2976 12.97 91.0996 14.41 91.0996 15.31C91.0996 17.974 92.1976 19.288 94.4116 19.288C95.9236 19.288 97.0576 18.928 97.8136 18.19C98.0476 17.938 98.1736 17.65 98.1736 17.308ZM106.177 14.824C106.177 14.662 106.087 14.482 105.943 14.302C105.943 13.888 105.871 13.528 105.763 13.204C105.781 13.132 105.799 13.042 105.799 12.952C105.799 12.736 105.673 12.52 105.457 12.34C105.223 12.16 104.989 12.052 104.755 12.052C103.765 12.052 102.685 12.628 101.497 13.744C100.255 14.896 99.6426 16.012 99.6426 17.056C99.6426 17.614 99.8226 18.1 100.219 18.532C100.597 18.982 101.047 19.198 101.569 19.198C102.379 19.198 103.279 18.694 104.287 17.686C104.377 19.054 104.683 19.756 105.205 19.756C105.385 19.756 105.565 19.684 105.727 19.576C105.871 19.432 105.961 19.252 105.961 19.072C105.961 19.018 105.907 18.802 105.835 18.37C105.745 17.956 105.709 17.632 105.709 17.416C105.709 16.696 105.817 15.976 106.069 15.22C106.141 15.022 106.177 14.896 106.177 14.824ZM104.539 14.302C104.539 14.914 104.179 15.634 103.495 16.462C102.811 17.29 102.181 17.686 101.641 17.686C101.263 17.686 101.083 17.47 101.083 17.02C101.083 16.444 101.533 15.724 102.451 14.842C103.279 14.05 103.873 13.636 104.215 13.636C104.431 13.636 104.539 13.87 104.539 14.302ZM115.426 14.806C115.426 14.212 115.228 13.708 114.832 13.312C114.436 12.898 113.95 12.682 113.392 12.682C112.33 12.682 111.196 13.42 110.008 14.86C110.152 12.664 110.314 10.774 110.53 9.19C110.746 9.064 110.89 8.902 110.944 8.722C111.196 7.75 111.322 7.03 111.322 6.562C111.322 5.914 111.052 5.59 110.548 5.59C110.188 5.59 109.9 6.04 109.666 6.94C109.306 8.236 109.018 9.91 108.802 11.962C108.658 13.546 108.586 14.914 108.586 16.048C108.586 16.822 108.604 17.524 108.676 18.172C108.388 18.352 108.226 18.586 108.19 18.91C108.316 19.486 108.712 19.774 109.378 19.774C110.458 19.774 111.718 19.234 113.14 18.172C114.652 17.038 115.426 15.922 115.426 14.806ZM114.022 14.842C114.022 15.616 113.14 16.516 111.394 17.542C111.016 17.794 110.584 17.974 110.098 18.118V17.65C110.098 17.416 110.296 17.002 110.71 16.426C111.07 15.886 111.538 15.4 112.078 14.95C112.6 14.5 113.014 14.266 113.302 14.266C113.77 14.266 114.022 14.464 114.022 14.842Z" fill="black"/>
<path d="M51.24 42.794C51.348 42.542 51.456 42.236 51.564 41.858C51.78 42.254 51.996 42.614 52.248 42.938C53.58 44.81 54.858 45.746 56.118 45.746C56.478 45.746 56.784 45.638 57.054 45.44C57.414 45.134 57.648 44.684 57.774 44.09C57.828 43.766 57.864 43.154 57.864 42.29C57.864 41.516 57.846 40.67 57.81 39.734C57.774 38.384 57.72 37.016 57.648 35.648C57.486 33.056 57.252 31.31 56.964 30.428C56.874 30.104 56.64 29.924 56.28 29.924C56.172 29.924 56.046 29.996 55.902 30.14C55.794 30.284 55.758 30.41 55.758 30.536C55.794 30.86 55.848 31.22 55.92 31.652C56.1 32.768 56.244 34.028 56.37 35.396C56.514 36.602 56.604 38.42 56.658 40.85V42.668C56.658 43.946 56.424 44.576 55.974 44.576C55.38 44.576 54.696 44.18 53.904 43.424C53.202 42.668 52.536 41.642 51.888 40.364C51.888 40.328 51.906 40.292 51.906 40.256C51.996 39.68 52.05 38.906 52.086 37.934C52.068 37.52 51.852 37.304 51.42 37.304C51.096 37.322 50.916 37.448 50.88 37.664C50.844 38.222 50.79 38.87 50.682 39.626C50.43 40.886 50.322 41.696 50.322 42.074C50.322 42.47 50.358 42.74 50.448 42.92C50.538 43.1 50.646 43.172 50.79 43.172C50.97 43.172 51.114 43.046 51.24 42.794ZM64.128 41.696C64.2 41.732 64.272 41.75 64.362 41.75C64.74 41.75 64.938 41.552 64.938 41.12C64.92 40.994 64.83 40.85 64.686 40.67C64.614 40.562 64.56 40.472 64.488 40.364C64.236 40.058 63.894 39.68 63.498 39.212C62.706 38.294 62.13 37.61 61.77 37.16C61.59 36.962 61.428 36.8 61.32 36.674C61.194 36.638 61.086 36.62 61.014 36.62C60.798 36.62 60.654 36.746 60.546 36.962C60.474 37.07 60.438 37.196 60.438 37.322V37.466C60.456 37.574 60.528 37.682 60.636 37.808C60.708 37.952 60.798 38.096 60.942 38.24C61.392 38.78 61.806 39.266 62.184 39.698L63.408 40.994C63.732 41.354 63.966 41.588 64.128 41.696ZM84.1309 35.342C84.1309 35.27 84.1129 35.198 84.0769 35.144C84.0049 35 83.8789 34.928 83.6989 34.928C83.2309 35.144 82.6909 35.36 82.0429 35.612C82.0429 35.45 82.0429 35.27 82.0429 35.09C82.0609 33.938 82.0789 33.128 82.0789 32.66C82.0789 32.3 81.8989 32.084 81.5389 31.976H81.1609C80.8369 32.084 80.6929 32.3 80.6929 32.66C80.6929 33.74 80.7109 34.784 80.7109 35.756C80.7109 35.864 80.7109 35.99 80.7109 36.098C80.3869 36.206 80.0269 36.332 79.6309 36.458C79.0369 36.674 78.4429 36.872 77.8309 37.034C77.8489 36.386 77.8669 35.738 77.8669 35.09C77.8669 34.838 77.8489 34.622 77.8489 34.424C77.7949 33.92 77.5789 33.65 77.2009 33.65C77.0749 33.65 76.9489 33.704 76.8049 33.776C76.5529 33.938 76.4449 34.154 76.4449 34.424C76.4809 34.874 76.4989 35.36 76.5169 35.9V37.412C76.3009 37.484 76.0849 37.556 75.8869 37.592C75.5629 37.682 75.3109 37.754 75.1309 37.826C74.8069 37.988 74.6449 38.168 74.6449 38.366C74.6809 38.834 74.8609 39.086 75.2209 39.086C75.4009 39.086 75.6169 39.086 75.8869 39.05C76.0129 39.032 76.2109 38.978 76.4989 38.888C76.4989 39.356 76.4809 39.752 76.4809 40.112C76.4449 40.814 76.4089 41.57 76.3729 42.38C76.3189 43.46 76.3009 44.054 76.3009 44.198C76.3009 44.9 76.4989 45.26 76.8949 45.26C77.1829 45.26 77.3629 45.116 77.4349 44.864C77.4529 44.576 77.4889 44.09 77.5249 43.406C77.5249 43.082 77.5789 41.948 77.7049 39.986C77.7229 39.518 77.7409 39.014 77.7769 38.51C78.4429 38.294 79.1449 38.078 79.9009 37.826C80.1889 37.718 80.4589 37.628 80.7289 37.52C80.7649 38.582 80.8009 39.662 80.8549 40.778C80.9269 42.182 80.9629 43.55 80.9809 44.846C80.9449 45.566 80.7469 46.25 80.3689 46.934C80.3689 47.384 80.5669 47.618 80.9809 47.618C81.2689 47.618 81.4849 47.492 81.6289 47.24C81.9889 46.592 82.1869 45.728 82.1869 44.684C82.1869 43.82 82.1509 42.776 82.0789 41.534C82.0429 40.184 82.0249 39.068 82.0249 38.186C82.0249 37.79 82.0249 37.394 82.0249 36.98C82.9249 36.584 83.5549 36.224 83.8789 35.882C84.0409 35.702 84.1309 35.522 84.1309 35.342ZM82.6189 30.77C82.7989 30.59 82.9069 30.374 82.9069 30.14C82.8889 30.014 82.7989 29.906 82.6369 29.798C82.4929 29.726 82.3669 29.69 82.2409 29.69C82.0429 29.69 81.7189 29.78 81.2689 29.924C79.9009 30.41 78.2269 30.878 76.2469 31.328C76.0129 31.364 75.8149 31.418 75.6529 31.472C75.4549 31.634 75.3469 31.814 75.3469 31.994C75.3469 32.354 75.5269 32.642 75.9049 32.822H76.0669C76.2829 32.804 76.5169 32.768 76.7509 32.696C78.1909 32.336 79.5949 31.922 80.9629 31.454C81.7009 31.238 82.2589 31.004 82.6189 30.77ZM70.6309 34.802C70.5949 34.874 70.5409 34.928 70.5049 35C69.1369 37.106 68.0209 39.122 67.1749 41.03C67.0669 41.264 67.0129 41.426 67.0129 41.516V41.75C67.0309 42.128 67.2109 42.308 67.5349 42.308C67.6429 42.29 67.7509 42.218 67.8589 42.092C68.4169 40.994 69.0289 39.896 69.6769 38.816C69.7669 39.464 69.8209 39.986 69.8209 40.382C69.8209 40.778 69.8029 41.246 69.8029 41.804C69.7669 42.146 69.7489 42.416 69.7489 42.614C69.7489 42.974 69.9109 43.154 70.2709 43.154C70.5949 43.154 70.8289 42.938 70.9369 42.488V42.434C71.1169 42.434 71.4949 42.272 72.0349 41.966C72.5749 41.678 73.1509 41.3 73.7989 40.832C74.0329 40.67 74.2129 40.49 74.3209 40.274C74.3389 40.238 74.3569 40.184 74.3569 40.112C74.3569 40.076 74.3209 39.986 74.2489 39.878C74.1949 39.824 74.1409 39.77 74.0869 39.716C74.1229 39.572 74.1769 39.428 74.2309 39.284C74.2669 39.068 74.3029 38.87 74.3029 38.69C74.3029 38.33 74.0149 38.006 73.4749 37.754C73.0069 37.538 72.4489 37.412 71.7649 37.394C71.3689 37.412 71.0449 37.448 70.8109 37.52C70.7749 37.43 70.7569 37.34 70.7389 37.268C70.7209 37.232 70.7029 37.196 70.7029 37.16C71.1709 36.404 71.6929 35.666 72.2329 34.928C72.4129 34.694 72.6469 34.442 72.9349 34.154C73.1689 33.902 73.2949 33.704 73.2949 33.542C73.2589 33.182 73.0609 32.984 72.6829 32.966C71.7109 33.362 70.9009 33.56 70.2169 33.578C69.6769 33.578 69.1909 33.506 68.7949 33.344C68.4889 33.47 68.3269 33.65 68.3269 33.866C68.3269 34.046 68.3809 34.19 68.4529 34.28C68.5969 34.694 68.8849 34.91 69.3169 34.946C69.7309 34.946 70.1629 34.91 70.6309 34.802ZM71.0809 41.03C71.0809 40.634 71.0989 40.202 71.0989 39.734C71.0989 39.482 71.0629 39.122 71.0269 38.654V38.618C71.3149 38.6 71.5669 38.582 71.8189 38.582C72.4849 38.582 72.9529 38.762 73.2229 39.104C73.2229 39.176 73.1329 39.356 72.9889 39.626C72.8269 39.914 72.6469 40.148 72.4669 40.292C72.1069 40.472 71.6749 40.706 71.1709 40.976C71.1349 40.994 71.0989 41.012 71.0809 41.03ZM88.4198 41.264C88.4198 41.498 88.5278 41.732 88.7438 41.948C88.7978 42.02 88.9058 42.038 89.0678 42.038C89.2118 42.02 89.3918 41.984 89.5718 41.912C90.2558 41.678 90.9578 41.426 91.7138 41.174C91.6058 41.678 91.4798 42.182 91.3178 42.686C90.8858 43.982 90.3098 45.17 89.6258 46.286C89.4458 46.502 89.3558 46.664 89.3558 46.772C89.3558 46.88 89.3918 46.97 89.4998 47.078C89.5718 47.15 89.6978 47.204 89.8598 47.204C90.0038 47.204 90.1478 47.132 90.2738 47.024C90.5258 46.736 90.8318 46.286 91.2098 45.638C91.7138 44.72 92.1458 43.748 92.5058 42.686C92.6858 42.182 92.8298 41.606 92.9738 40.976C92.9918 40.886 93.0098 40.796 93.0278 40.706C94.4678 40.166 95.2778 39.896 95.4218 39.896C95.4218 40.202 95.2778 40.94 95.0258 42.128C94.9718 42.344 94.9358 42.542 94.8998 42.74C94.8638 42.992 94.8638 43.208 94.8638 43.388C94.8638 44.036 95.0078 44.594 95.3318 45.098C96.1238 46.268 97.3478 46.88 99.0398 46.916C99.6518 46.916 100.174 46.826 100.588 46.646C101.128 46.358 101.398 45.908 101.416 45.314C101.416 43.694 101.02 42.416 100.246 41.516C100.066 41.336 99.8858 41.246 99.7058 41.246C99.5258 41.318 99.4538 41.444 99.4538 41.66C99.9578 42.83 100.21 43.964 100.21 45.08C100.21 45.35 99.8678 45.494 99.2018 45.53C98.9318 45.53 98.6618 45.494 98.4098 45.458C97.5458 45.314 96.9158 44.99 96.5378 44.486C96.2858 44.18 96.1778 43.838 96.1778 43.424C96.1778 42.938 96.3038 42.11 96.5558 40.958C96.6998 40.22 96.7898 39.644 96.7898 39.248C96.7538 38.834 96.5918 38.618 96.2858 38.618C95.9978 38.618 95.3858 38.78 94.4678 39.068C94.0898 39.194 93.6578 39.338 93.1898 39.482C93.1898 39.23 93.2078 38.978 93.2078 38.726C93.1898 38.06 93.0998 37.574 92.9558 37.286C92.8118 37.106 92.6498 36.998 92.4698 36.962C92.3258 36.962 92.1818 36.98 92.0738 36.998C91.7858 37.106 91.6238 37.304 91.6238 37.628C91.6238 37.772 91.6418 37.88 91.6598 37.934C91.7858 38.402 91.8578 38.996 91.8578 39.698V39.878C90.6518 40.274 89.6618 40.58 88.8878 40.832C88.5638 40.94 88.4198 41.084 88.4198 41.264ZM90.0938 32.246C90.0578 32.138 90.0398 32.048 90.0038 31.958C89.8958 31.76 89.7878 31.598 89.6798 31.49C89.5718 31.4 89.4278 31.346 89.2658 31.346C89.0858 31.346 88.9598 31.4 88.8878 31.49C88.7258 31.634 88.6538 31.814 88.6538 32.066C88.6538 32.138 88.6718 32.264 88.7438 32.408C88.8518 32.696 88.9238 33.074 88.9238 33.56C88.9238 33.776 88.9058 34.01 88.9058 34.244C88.8698 34.55 88.8338 34.838 88.7978 35.126C88.7618 35.306 88.7438 35.432 88.7438 35.504C88.7438 35.792 88.8878 35.936 89.1758 35.954C89.4278 35.954 89.6258 35.864 89.7518 35.684C89.7878 35.576 89.8418 35.468 89.8958 35.324C89.9678 35.036 90.0218 34.748 90.0938 34.46C90.1298 34.136 90.1478 33.83 90.1478 33.542C90.2738 33.542 90.4358 33.524 90.6518 33.452C93.8738 32.498 95.8718 31.958 96.6638 31.814C96.2858 32.246 95.8538 32.66 95.3498 33.056C95.1698 33.2 95.0798 33.344 95.0798 33.488C95.0798 33.596 95.1158 33.686 95.1878 33.776C95.2778 33.902 95.3858 33.956 95.5118 33.956C95.6558 33.956 95.8178 33.902 96.0158 33.776C96.1598 33.704 96.3038 33.596 96.4478 33.452C97.6538 32.48 98.2658 31.706 98.2658 31.13C98.2658 30.878 98.1398 30.698 97.9058 30.554C97.8158 30.554 97.7078 30.536 97.5998 30.536C97.1678 30.536 96.4118 30.662 95.3498 30.914C93.0998 31.418 91.3898 31.832 90.2378 32.192C90.1838 32.21 90.1298 32.228 90.0938 32.246ZM99.8318 36.908C99.8318 36.8 99.7418 36.692 99.5618 36.548C99.2018 36.296 98.7338 36.026 98.1758 35.702C97.4198 35.27 96.6998 34.892 96.0518 34.568C95.4758 34.316 95.0438 34.154 94.7918 34.064C94.5758 33.992 94.3958 33.956 94.2878 33.956C94.1978 33.956 94.1258 33.974 94.0718 33.992C93.9818 34.028 93.8918 34.1 93.8018 34.208C93.6938 34.352 93.6578 34.478 93.6578 34.568C93.6578 34.694 93.6938 34.802 93.8018 34.874C93.8558 34.946 94.1078 35.09 94.5758 35.342C95.5658 35.882 96.6458 36.386 97.8338 36.89C98.3378 37.07 98.7878 37.232 99.1838 37.358C99.2558 37.394 99.3458 37.412 99.4538 37.412C99.5618 37.412 99.6518 37.358 99.7418 37.286C99.7958 37.16 99.8318 37.034 99.8318 36.908ZM92.0738 29.258C91.6598 29.294 91.4258 29.474 91.3538 29.816C91.3538 30.23 91.4618 30.482 91.6958 30.572C92.0378 30.572 92.3978 30.59 92.7758 30.59C93.1358 30.59 93.5858 30.608 94.1258 30.608H94.5758C94.7198 30.554 94.8098 30.41 94.8458 30.158C94.8458 29.924 94.7918 29.726 94.7198 29.564C94.5938 29.528 94.3418 29.492 93.9638 29.42C93.6398 29.384 93.3158 29.348 93.0278 29.312C92.5958 29.276 92.2898 29.258 92.0738 29.258ZM92.1278 33.884C91.9658 33.884 91.8038 33.992 91.6418 34.172C91.2458 34.802 90.7418 35.558 90.1298 36.44C89.4098 37.376 88.9058 38.078 88.6178 38.546C88.5458 38.69 88.5098 38.798 88.5098 38.888C88.5098 39.194 88.6538 39.356 88.9418 39.374C89.0678 39.374 89.1758 39.356 89.2838 39.302C89.5538 39.122 89.8238 38.852 90.1118 38.492C91.1198 37.214 91.8578 36.152 92.3258 35.324C92.5598 34.928 92.6858 34.64 92.7038 34.424C92.6678 34.064 92.4878 33.884 92.1278 33.884ZM116.937 33.74C117.117 33.65 117.261 33.542 117.387 33.398C117.477 33.254 117.531 33.128 117.531 33.002C117.531 32.894 117.423 32.786 117.207 32.66C117.027 32.588 116.883 32.534 116.739 32.534C116.559 32.588 116.343 32.66 116.127 32.768C115.695 32.912 115.281 33.038 114.885 33.164C114.831 32.876 114.795 32.57 114.759 32.246C114.651 31.67 114.561 31.148 114.507 30.716C114.435 30.32 114.219 30.068 113.895 29.996H113.607C113.265 30.032 113.103 30.212 113.103 30.536C113.247 30.95 113.355 31.382 113.427 31.814C113.535 32.408 113.643 32.966 113.751 33.47C112.995 33.668 112.257 33.83 111.537 33.974C110.205 34.262 108.981 34.406 107.865 34.406C107.685 34.406 107.541 34.406 107.397 34.388C107.073 34.568 106.875 34.766 106.803 35V35.324C106.803 35.684 106.983 35.882 107.343 35.936H107.847C108.387 35.918 108.927 35.864 109.503 35.774C110.871 35.558 112.185 35.252 113.427 34.874C113.625 34.82 113.823 34.766 114.021 34.712C114.147 35.234 114.273 35.702 114.399 36.116C114.723 37.304 115.101 38.438 115.533 39.536C116.217 41.408 116.703 42.668 116.991 43.316C117.279 43.964 117.513 44.504 117.729 44.972C118.089 45.764 118.431 46.16 118.773 46.16C119.061 46.16 119.259 45.962 119.367 45.584C119.655 44.756 119.817 44.054 119.817 43.496C119.817 42.812 119.709 42.47 119.511 42.47C119.367 42.47 119.241 42.578 119.115 42.776C118.971 43.064 118.827 43.406 118.683 43.802C117.657 41.75 116.847 39.842 116.253 38.078C115.785 36.8 115.407 35.576 115.137 34.388C115.785 34.19 116.379 33.974 116.937 33.74ZM116.631 29.744C116.235 29.78 116.019 29.96 115.947 30.284C115.947 30.644 116.055 30.878 116.289 30.968C116.577 31.076 116.901 31.202 117.243 31.31C117.567 31.436 117.981 31.598 118.503 31.796C118.629 31.868 118.719 31.886 118.773 31.886H118.863C118.989 31.832 119.079 31.706 119.115 31.508C119.115 31.328 119.061 31.148 118.971 31.004C118.863 30.86 118.629 30.698 118.305 30.482C118.035 30.302 117.765 30.14 117.477 30.014C117.099 29.834 116.811 29.744 116.631 29.744ZM113.751 40.724C113.751 40.652 113.733 40.58 113.715 40.544C113.643 40.418 113.517 40.346 113.337 40.346C112.599 40.904 111.573 41.534 110.259 42.218C110.295 42.038 110.349 41.858 110.403 41.66C110.511 41.138 110.565 40.67 110.565 40.256C110.565 39.68 110.493 39.212 110.349 38.834C110.313 38.78 110.259 38.708 110.223 38.636C110.259 38.636 110.295 38.618 110.349 38.582C111.105 38.294 111.735 37.988 112.239 37.646C112.437 37.412 112.545 37.232 112.545 37.106C112.545 37.034 112.527 36.944 112.509 36.872C112.455 36.746 112.329 36.674 112.149 36.674C112.059 36.674 111.951 36.692 111.843 36.71C111.627 36.764 111.339 36.854 110.943 36.998C109.935 37.394 109.071 37.682 108.387 37.862C108.063 37.97 107.631 38.096 107.073 38.258C106.749 38.366 106.569 38.546 106.569 38.762C106.569 39.014 106.623 39.194 106.731 39.338C106.839 39.482 106.983 39.554 107.127 39.554C107.235 39.554 107.397 39.518 107.631 39.428C108.063 39.356 108.531 39.248 109.035 39.068C109.035 39.14 109.071 39.212 109.125 39.32C109.251 39.626 109.323 40.04 109.323 40.562C109.323 40.832 109.305 41.102 109.269 41.372C109.215 41.768 109.143 42.128 109.053 42.452C109.017 42.614 108.981 42.758 108.981 42.866C108.459 43.118 107.937 43.37 107.397 43.586C107.073 43.676 106.821 43.766 106.605 43.838C106.245 44.018 106.083 44.198 106.083 44.414C106.155 44.882 106.353 45.134 106.677 45.152C106.893 45.152 107.127 45.134 107.397 45.116C107.505 45.08 107.667 45.008 107.901 44.9C108.693 44.504 109.557 44.072 110.457 43.586C112.095 42.686 113.103 41.894 113.481 41.228C113.661 41.066 113.751 40.904 113.751 40.724Z" fill="black"/>
</svg>
