<svg width="126" height="51" viewBox="0 0 126 51" fill="none" xmlns="http://www.w3.org/2000/svg">
<path d="M63.544 22.386C63.544 22.566 63.454 22.746 63.31 22.926C63.148 23.07 62.968 23.16 62.77 23.16C62.356 23.16 61.942 22.782 61.546 22.062C60.934 20.982 60.43 19.344 60.07 17.184C59.962 16.59 59.746 14.826 59.404 11.874C58.576 13.962 57.964 15.852 57.586 17.508C57.478 18.012 57.226 18.246 56.866 18.246C56.596 18.246 56.29 18.084 55.966 17.724C55.3 17.04 54.652 16.014 54.022 14.61C53.41 13.314 52.996 12.126 52.78 11.046C52.366 12.576 52.078 14.016 51.916 15.366C51.772 16.536 51.682 17.796 51.646 19.128C51.61 19.848 51.394 20.208 50.962 20.208C50.602 20.208 50.314 19.848 50.116 19.128C49.972 18.588 49.918 17.958 49.918 17.274C49.918 16.914 49.99 16.068 50.134 14.718C50.242 13.71 50.314 12.9 50.314 12.252C50.314 12.126 50.296 11.946 50.296 11.694C50.278 11.478 50.278 11.298 50.278 11.154C50.278 10.686 50.512 10.434 50.998 10.434C51.142 10.434 51.304 10.488 51.484 10.596C51.736 9.858 52.006 9.21 52.276 8.634C52.402 8.364 52.636 8.22 52.978 8.22C53.338 8.22 53.572 8.436 53.68 8.85C54.472 12.144 55.408 14.538 56.506 16.032C57.226 13.458 58.072 11.316 59.044 9.588C59.17 9.354 59.368 9.228 59.656 9.228C59.98 9.228 60.214 9.426 60.34 9.804C60.7 10.884 60.97 12.288 61.186 14.052C61.402 15.888 61.582 17.13 61.69 17.76C61.96 19.272 62.284 20.37 62.68 21.018C62.932 21.126 63.148 21.378 63.31 21.756C63.454 22.134 63.544 22.35 63.544 22.386ZM67.9291 8.292C67.9291 9.012 67.7311 9.372 67.3351 9.372C67.2811 9.372 67.1731 9.354 67.0291 9.3C66.5071 9.12 66.2551 8.652 66.2551 7.896C66.2551 7.518 66.5071 7.248 67.0111 7.068C67.6231 7.14 67.9291 7.536 67.9291 8.292ZM67.1011 15.258L66.7951 16.464C66.4351 17.868 66.2371 19.092 66.2011 20.172C66.4351 20.388 66.5611 20.658 66.5611 20.982C66.5611 21.09 66.4891 21.18 66.3811 21.288C66.2731 21.396 66.1651 21.45 66.0571 21.45C65.2291 21.45 64.8331 20.712 64.8331 19.236C64.8331 18.534 65.0671 17.166 65.5531 15.132C65.5171 14.916 65.4991 14.772 65.4991 14.7C65.4991 14.466 65.6251 14.268 65.9131 14.124C66.7051 14.124 67.1011 14.502 67.1011 15.258ZM76.1621 15.834C76.1621 16.662 76.0181 18.354 75.7301 20.892C75.6941 21.216 75.5501 21.396 75.2981 21.396C75.0281 21.396 74.8121 21.288 74.6321 21.072C74.4521 20.838 74.3621 20.586 74.3621 20.298C74.3621 20.28 74.3981 19.938 74.4701 19.272L74.7401 16.968C73.2461 18.102 72.2021 19.164 71.5901 20.172C71.4641 20.388 71.3561 20.622 71.2481 20.838C71.0681 21.126 70.8881 21.288 70.7081 21.288C69.9521 21.288 69.5921 20.226 69.5921 18.084C69.5921 16.68 69.7901 15.258 70.1861 13.8C70.2581 13.548 70.3841 13.404 70.6001 13.404C70.8701 13.404 71.1041 13.512 71.2841 13.71C71.4641 13.944 71.5541 14.196 71.5541 14.484C71.4641 14.844 71.3741 15.24 71.2841 15.672C71.1041 16.626 71.0141 17.544 71.0141 18.444C72.2921 16.896 73.6601 15.708 75.1181 14.898C75.3701 14.916 75.6041 15.006 75.8201 15.168C76.0361 15.348 76.1621 15.564 76.1621 15.834ZM81.4643 8.292C81.4643 9.012 81.2663 9.372 80.8703 9.372C80.8163 9.372 80.7083 9.354 80.5643 9.3C80.0423 9.12 79.7903 8.652 79.7903 7.896C79.7903 7.518 80.0423 7.248 80.5463 7.068C81.1583 7.14 81.4643 7.536 81.4643 8.292ZM80.6363 15.258L80.3303 16.464C79.9703 17.868 79.7723 19.092 79.7363 20.172C79.9703 20.388 80.0963 20.658 80.0963 20.982C80.0963 21.09 80.0243 21.18 79.9163 21.288C79.8083 21.396 79.7003 21.45 79.5923 21.45C78.7643 21.45 78.3683 20.712 78.3683 19.236C78.3683 18.534 78.6023 17.166 79.0883 15.132C79.0523 14.916 79.0343 14.772 79.0343 14.7C79.0343 14.466 79.1603 14.268 79.4483 14.124C80.2403 14.124 80.6363 14.502 80.6363 15.258ZM96.1736 19.308C96.1736 19.65 96.0476 19.938 95.8136 20.19C95.0576 20.928 93.9236 21.288 92.4116 21.288C90.1976 21.288 89.0996 19.974 89.0996 17.31C89.0996 16.41 89.2976 14.97 89.7116 12.99C90.1436 10.974 90.5576 9.462 90.9896 8.472C91.2236 7.914 91.5296 7.626 91.8896 7.626C92.3576 7.626 92.5916 7.86 92.5916 8.328C92.5916 8.49 92.5376 8.706 92.4476 8.958C91.2056 12.702 90.5936 15.474 90.5936 17.274C90.5936 18.21 90.7196 18.858 90.9896 19.182C91.2416 19.524 91.7276 19.686 92.4476 19.686C93.2576 19.686 94.0316 19.488 94.7696 19.092C94.8596 18.768 95.0936 18.606 95.4536 18.606C95.9216 18.606 96.1736 18.84 96.1736 19.308ZM104.177 16.824C104.177 16.896 104.141 17.022 104.069 17.22C103.817 17.976 103.709 18.696 103.709 19.416C103.709 19.632 103.745 19.956 103.835 20.37C103.907 20.802 103.961 21.018 103.961 21.072C103.961 21.252 103.871 21.432 103.727 21.576C103.565 21.684 103.385 21.756 103.205 21.756C102.683 21.756 102.377 21.054 102.287 19.686C101.279 20.694 100.379 21.198 99.5686 21.198C99.0466 21.198 98.5966 20.982 98.2186 20.532C97.8226 20.1 97.6426 19.614 97.6426 19.056C97.6426 18.012 98.2546 16.896 99.4966 15.744C100.685 14.628 101.765 14.052 102.755 14.052C102.989 14.052 103.223 14.16 103.457 14.34C103.673 14.52 103.799 14.736 103.799 14.952C103.799 15.042 103.781 15.132 103.763 15.204C103.871 15.528 103.943 15.888 103.943 16.302C104.087 16.482 104.177 16.662 104.177 16.824ZM102.539 16.302C102.539 15.87 102.431 15.636 102.215 15.636C101.873 15.636 101.279 16.05 100.451 16.842C99.5326 17.724 99.0826 18.444 99.0826 19.02C99.0826 19.47 99.2626 19.686 99.6406 19.686C100.181 19.686 100.811 19.29 101.495 18.462C102.179 17.634 102.539 16.914 102.539 16.302ZM113.426 16.806C113.426 17.922 112.652 19.038 111.14 20.172C109.718 21.234 108.458 21.774 107.378 21.774C106.712 21.774 106.316 21.486 106.19 20.91C106.226 20.586 106.388 20.352 106.676 20.172C106.604 19.524 106.586 18.822 106.586 18.048C106.586 16.914 106.658 15.546 106.802 13.962C107.018 11.91 107.306 10.236 107.666 8.94C107.9 8.04 108.188 7.59 108.548 7.59C109.052 7.59 109.322 7.914 109.322 8.562C109.322 9.03 109.196 9.75 108.944 10.722C108.89 10.902 108.746 11.064 108.53 11.19C108.314 12.774 108.152 14.664 108.008 16.86C109.196 15.42 110.33 14.682 111.392 14.682C111.95 14.682 112.436 14.898 112.832 15.312C113.228 15.708 113.426 16.212 113.426 16.806ZM112.022 16.842C112.022 16.464 111.77 16.266 111.302 16.266C111.014 16.266 110.6 16.5 110.078 16.95C109.538 17.4 109.07 17.886 108.71 18.426C108.296 19.002 108.098 19.416 108.098 19.65V20.118C108.584 19.974 109.016 19.794 109.394 19.542C111.14 18.516 112.022 17.616 112.022 16.842Z" fill="#3F3F3F"/>
<path d="M49.24 44.794C49.114 45.046 48.97 45.172 48.79 45.172C48.646 45.172 48.538 45.1 48.448 44.92C48.358 44.74 48.322 44.47 48.322 44.074C48.322 43.696 48.43 42.886 48.682 41.626C48.79 40.87 48.844 40.222 48.88 39.664C48.916 39.448 49.096 39.322 49.42 39.304C49.852 39.304 50.068 39.52 50.086 39.934C50.05 40.906 49.996 41.68 49.906 42.256C49.906 42.292 49.888 42.328 49.888 42.364C50.536 43.642 51.202 44.668 51.904 45.424C52.696 46.18 53.38 46.576 53.974 46.576C54.424 46.576 54.658 45.946 54.658 44.668V42.85C54.604 40.42 54.514 38.602 54.37 37.396C54.244 36.028 54.1 34.768 53.92 33.652C53.848 33.22 53.794 32.86 53.758 32.536C53.758 32.41 53.794 32.284 53.902 32.14C54.046 31.996 54.172 31.924 54.28 31.924C54.64 31.924 54.874 32.104 54.964 32.428C55.252 33.31 55.486 35.056 55.648 37.648C55.72 39.016 55.774 40.384 55.81 41.734C55.846 42.67 55.864 43.516 55.864 44.29C55.864 45.154 55.828 45.766 55.774 46.09C55.648 46.684 55.414 47.134 55.054 47.44C54.784 47.638 54.478 47.746 54.118 47.746C52.858 47.746 51.58 46.81 50.248 44.938C49.996 44.614 49.78 44.254 49.564 43.858C49.456 44.236 49.348 44.542 49.24 44.794ZM62.128 43.696C61.966 43.588 61.732 43.354 61.408 42.994L60.184 41.698C59.806 41.266 59.392 40.78 58.942 40.24C58.798 40.096 58.708 39.952 58.636 39.808C58.528 39.682 58.456 39.574 58.438 39.466V39.322C58.438 39.196 58.474 39.07 58.546 38.962C58.654 38.746 58.798 38.62 59.014 38.62C59.086 38.62 59.194 38.638 59.32 38.674C59.428 38.8 59.59 38.962 59.77 39.16C60.13 39.61 60.706 40.294 61.498 41.212C61.894 41.68 62.236 42.058 62.488 42.364C62.56 42.472 62.614 42.562 62.686 42.67C62.83 42.85 62.92 42.994 62.938 43.12C62.938 43.552 62.74 43.75 62.362 43.75C62.272 43.75 62.2 43.732 62.128 43.696ZM82.1309 37.342C82.1309 37.522 82.0409 37.702 81.8789 37.882C81.5549 38.224 80.9249 38.584 80.0249 38.98C80.0249 39.394 80.0249 39.79 80.0249 40.186C80.0249 41.068 80.0429 42.184 80.0789 43.534C80.1509 44.776 80.1869 45.82 80.1869 46.684C80.1869 47.728 79.9889 48.592 79.6289 49.24C79.4849 49.492 79.2689 49.618 78.9809 49.618C78.5669 49.618 78.3689 49.384 78.3689 48.934C78.7469 48.25 78.9449 47.566 78.9809 46.846C78.9629 45.55 78.9269 44.182 78.8549 42.778C78.8009 41.662 78.7649 40.582 78.7289 39.52C78.4589 39.628 78.1889 39.718 77.9009 39.826C77.1449 40.078 76.4429 40.294 75.7769 40.51C75.7409 41.014 75.7229 41.518 75.7049 41.986C75.5789 43.948 75.5249 45.082 75.5249 45.406C75.4889 46.09 75.4529 46.576 75.4349 46.864C75.3629 47.116 75.1829 47.26 74.8949 47.26C74.4989 47.26 74.3009 46.9 74.3009 46.198C74.3009 46.054 74.3189 45.46 74.3729 44.38C74.4089 43.57 74.4449 42.814 74.4809 42.112C74.4809 41.752 74.4989 41.356 74.4989 40.888C74.2109 40.978 74.0129 41.032 73.8869 41.05C73.6169 41.086 73.4009 41.086 73.2209 41.086C72.8609 41.086 72.6809 40.834 72.6449 40.366C72.6449 40.168 72.8069 39.988 73.1309 39.826C73.3109 39.754 73.5629 39.682 73.8869 39.592C74.0849 39.556 74.3009 39.484 74.5169 39.412V37.9C74.4989 37.36 74.4809 36.874 74.4449 36.424C74.4449 36.154 74.5529 35.938 74.8049 35.776C74.9489 35.704 75.0749 35.65 75.2009 35.65C75.5789 35.65 75.7949 35.92 75.8489 36.424C75.8489 36.622 75.8669 36.838 75.8669 37.09C75.8669 37.738 75.8489 38.386 75.8309 39.034C76.4429 38.872 77.0369 38.674 77.6309 38.458C78.0269 38.332 78.3869 38.206 78.7109 38.098C78.7109 37.99 78.7109 37.864 78.7109 37.756C78.7109 36.784 78.6929 35.74 78.6929 34.66C78.6929 34.3 78.8369 34.084 79.1609 33.976H79.5389C79.8989 34.084 80.0789 34.3 80.0789 34.66C80.0789 35.128 80.0609 35.938 80.0429 37.09C80.0429 37.27 80.0429 37.45 80.0429 37.612C80.6909 37.36 81.2309 37.144 81.6989 36.928C81.8789 36.928 82.0049 37 82.0769 37.144C82.1129 37.198 82.1309 37.27 82.1309 37.342ZM80.6189 32.77C80.2589 33.004 79.7009 33.238 78.9629 33.454C77.5949 33.922 76.1909 34.336 74.7509 34.696C74.5169 34.768 74.2829 34.804 74.0669 34.822H73.9049C73.5269 34.642 73.3469 34.354 73.3469 33.994C73.3469 33.814 73.4549 33.634 73.6529 33.472C73.8149 33.418 74.0129 33.364 74.2469 33.328C76.2269 32.878 77.9009 32.41 79.2689 31.924C79.7189 31.78 80.0429 31.69 80.2409 31.69C80.3669 31.69 80.4929 31.726 80.6369 31.798C80.7989 31.906 80.8889 32.014 80.9069 32.14C80.9069 32.374 80.7989 32.59 80.6189 32.77ZM68.6309 36.802C68.1629 36.91 67.7309 36.946 67.3169 36.946C66.8849 36.91 66.5969 36.694 66.4529 36.28C66.3809 36.19 66.3269 36.046 66.3269 35.866C66.3269 35.65 66.4889 35.47 66.7949 35.344C67.1909 35.506 67.6769 35.578 68.2169 35.578C68.9009 35.56 69.7109 35.362 70.6829 34.966C71.0609 34.984 71.2589 35.182 71.2949 35.542C71.2949 35.704 71.1689 35.902 70.9349 36.154C70.6469 36.442 70.4129 36.694 70.2329 36.928C69.6929 37.666 69.1709 38.404 68.7029 39.16C68.7029 39.196 68.7209 39.232 68.7389 39.268C68.7569 39.34 68.7749 39.43 68.8109 39.52C69.0449 39.448 69.3689 39.412 69.7649 39.394C70.4489 39.412 71.0069 39.538 71.4749 39.754C72.0149 40.006 72.3029 40.33 72.3029 40.69C72.3029 40.87 72.2669 41.068 72.2309 41.284C72.1769 41.428 72.1229 41.572 72.0869 41.716C72.1409 41.77 72.1949 41.824 72.2489 41.878C72.3209 41.986 72.3569 42.076 72.3569 42.112C72.3569 42.184 72.3389 42.238 72.3209 42.274C72.2129 42.49 72.0329 42.67 71.7989 42.832C71.1509 43.3 70.5749 43.678 70.0349 43.966C69.4949 44.272 69.1169 44.434 68.9369 44.434V44.488C68.8289 44.938 68.5949 45.154 68.2709 45.154C67.9109 45.154 67.7489 44.974 67.7489 44.614C67.7489 44.416 67.7669 44.146 67.8029 43.804C67.8029 43.246 67.8209 42.778 67.8209 42.382C67.8209 41.986 67.7669 41.464 67.6769 40.816C67.0289 41.896 66.4169 42.994 65.8589 44.092C65.7509 44.218 65.6429 44.29 65.5349 44.308C65.2109 44.308 65.0309 44.128 65.0129 43.75V43.516C65.0129 43.426 65.0669 43.264 65.1749 43.03C66.0209 41.122 67.1369 39.106 68.5049 37C68.5409 36.928 68.5949 36.874 68.6309 36.802ZM69.0809 43.03C69.0989 43.012 69.1349 42.994 69.1709 42.976C69.6749 42.706 70.1069 42.472 70.4669 42.292C70.6469 42.148 70.8269 41.914 70.9889 41.626C71.1329 41.356 71.2229 41.176 71.2229 41.104C70.9529 40.762 70.4849 40.582 69.8189 40.582C69.5669 40.582 69.3149 40.6 69.0269 40.618V40.654C69.0629 41.122 69.0989 41.482 69.0989 41.734C69.0989 42.202 69.0809 42.634 69.0809 43.03ZM86.4198 43.264C86.4198 43.084 86.5638 42.94 86.8878 42.832C87.6618 42.58 88.6518 42.274 89.8578 41.878V41.698C89.8578 40.996 89.7858 40.402 89.6598 39.934C89.6418 39.88 89.6238 39.772 89.6238 39.628C89.6238 39.304 89.7858 39.106 90.0738 38.998C90.1818 38.98 90.3258 38.962 90.4698 38.962C90.6498 38.998 90.8118 39.106 90.9558 39.286C91.0998 39.574 91.1898 40.06 91.2078 40.726C91.2078 40.978 91.1898 41.23 91.1898 41.482C91.6578 41.338 92.0898 41.194 92.4678 41.068C93.3858 40.78 93.9978 40.618 94.2858 40.618C94.5918 40.618 94.7538 40.834 94.7898 41.248C94.7898 41.644 94.6998 42.22 94.5558 42.958C94.3038 44.11 94.1778 44.938 94.1778 45.424C94.1778 45.838 94.2858 46.18 94.5378 46.486C94.9158 46.99 95.5458 47.314 96.4098 47.458C96.6618 47.494 96.9318 47.53 97.2018 47.53C97.8678 47.494 98.2098 47.35 98.2098 47.08C98.2098 45.964 97.9578 44.83 97.4538 43.66C97.4538 43.444 97.5258 43.318 97.7058 43.246C97.8858 43.246 98.0658 43.336 98.2458 43.516C99.0198 44.416 99.4158 45.694 99.4158 47.314C99.3978 47.908 99.1278 48.358 98.5878 48.646C98.1738 48.826 97.6518 48.916 97.0398 48.916C95.3478 48.88 94.1238 48.268 93.3318 47.098C93.0078 46.594 92.8638 46.036 92.8638 45.388C92.8638 45.208 92.8638 44.992 92.8998 44.74C92.9358 44.542 92.9718 44.344 93.0258 44.128C93.2778 42.94 93.4218 42.202 93.4218 41.896C93.2778 41.896 92.4678 42.166 91.0278 42.706C91.0098 42.796 90.9918 42.886 90.9738 42.976C90.8298 43.606 90.6858 44.182 90.5058 44.686C90.1458 45.748 89.7138 46.72 89.2098 47.638C88.8318 48.286 88.5258 48.736 88.2738 49.024C88.1478 49.132 88.0038 49.204 87.8598 49.204C87.6978 49.204 87.5718 49.15 87.4998 49.078C87.3918 48.97 87.3558 48.88 87.3558 48.772C87.3558 48.664 87.4458 48.502 87.6258 48.286C88.3098 47.17 88.8858 45.982 89.3178 44.686C89.4798 44.182 89.6058 43.678 89.7138 43.174C88.9578 43.426 88.2558 43.678 87.5718 43.912C87.3918 43.984 87.2118 44.02 87.0678 44.038C86.9058 44.038 86.7978 44.02 86.7438 43.948C86.5278 43.732 86.4198 43.498 86.4198 43.264ZM88.0938 34.246C88.1298 34.228 88.1838 34.21 88.2378 34.192C89.3898 33.832 91.0998 33.418 93.3498 32.914C94.4118 32.662 95.1678 32.536 95.5998 32.536C95.7078 32.536 95.8158 32.554 95.9058 32.554C96.1398 32.698 96.2658 32.878 96.2658 33.13C96.2658 33.706 95.6538 34.48 94.4478 35.452C94.3038 35.596 94.1598 35.704 94.0158 35.776C93.8178 35.902 93.6558 35.956 93.5118 35.956C93.3858 35.956 93.2778 35.902 93.1878 35.776C93.1158 35.686 93.0798 35.596 93.0798 35.488C93.0798 35.344 93.1698 35.2 93.3498 35.056C93.8538 34.66 94.2858 34.246 94.6638 33.814C93.8718 33.958 91.8738 34.498 88.6518 35.452C88.4358 35.524 88.2738 35.542 88.1478 35.542C88.1478 35.83 88.1298 36.136 88.0938 36.46C88.0218 36.748 87.9678 37.036 87.8958 37.324C87.8418 37.468 87.7878 37.576 87.7518 37.684C87.6258 37.864 87.4278 37.954 87.1758 37.954C86.8878 37.936 86.7438 37.792 86.7438 37.504C86.7438 37.432 86.7618 37.306 86.7978 37.126C86.8338 36.838 86.8698 36.55 86.9058 36.244C86.9058 36.01 86.9238 35.776 86.9238 35.56C86.9238 35.074 86.8518 34.696 86.7438 34.408C86.6718 34.264 86.6538 34.138 86.6538 34.066C86.6538 33.814 86.7258 33.634 86.8878 33.49C86.9598 33.4 87.0858 33.346 87.2658 33.346C87.4278 33.346 87.5718 33.4 87.6798 33.49C87.7878 33.598 87.8958 33.76 88.0038 33.958C88.0398 34.048 88.0578 34.138 88.0938 34.246ZM97.8318 38.908C97.8318 39.034 97.7958 39.16 97.7418 39.286C97.6518 39.358 97.5618 39.412 97.4538 39.412C97.3458 39.412 97.2558 39.394 97.1838 39.358C96.7878 39.232 96.3378 39.07 95.8338 38.89C94.6458 38.386 93.5658 37.882 92.5758 37.342C92.1078 37.09 91.8558 36.946 91.8018 36.874C91.6938 36.802 91.6578 36.694 91.6578 36.568C91.6578 36.478 91.6938 36.352 91.8018 36.208C91.8918 36.1 91.9818 36.028 92.0718 35.992C92.1258 35.974 92.1978 35.956 92.2878 35.956C92.3958 35.956 92.5758 35.992 92.7918 36.064C93.0438 36.154 93.4758 36.316 94.0518 36.568C94.6998 36.892 95.4198 37.27 96.1758 37.702C96.7338 38.026 97.2018 38.296 97.5618 38.548C97.7418 38.692 97.8318 38.8 97.8318 38.908ZM90.0738 31.258C90.2898 31.258 90.5958 31.276 91.0278 31.312C91.3158 31.348 91.6398 31.384 91.9638 31.42C92.3418 31.492 92.5938 31.528 92.7198 31.564C92.7918 31.726 92.8458 31.924 92.8458 32.158C92.8098 32.41 92.7198 32.554 92.5758 32.608H92.1258C91.5858 32.608 91.1358 32.59 90.7758 32.59C90.3978 32.59 90.0378 32.572 89.6958 32.572C89.4618 32.482 89.3538 32.23 89.3538 31.816C89.4258 31.474 89.6598 31.294 90.0738 31.258ZM90.1278 35.884C90.4878 35.884 90.6678 36.064 90.7038 36.424C90.6858 36.64 90.5598 36.928 90.3258 37.324C89.8578 38.152 89.1198 39.214 88.1118 40.492C87.8238 40.852 87.5538 41.122 87.2838 41.302C87.1758 41.356 87.0678 41.374 86.9418 41.374C86.6538 41.356 86.5098 41.194 86.5098 40.888C86.5098 40.798 86.5458 40.69 86.6178 40.546C86.9058 40.078 87.4098 39.376 88.1298 38.44C88.7418 37.558 89.2458 36.802 89.6418 36.172C89.8038 35.992 89.9658 35.884 90.1278 35.884ZM114.937 35.74C114.379 35.974 113.785 36.19 113.137 36.388C113.407 37.576 113.785 38.8 114.253 40.078C114.847 41.842 115.657 43.75 116.683 45.802C116.827 45.406 116.971 45.064 117.115 44.776C117.241 44.578 117.367 44.47 117.511 44.47C117.709 44.47 117.817 44.812 117.817 45.496C117.817 46.054 117.655 46.756 117.367 47.584C117.259 47.962 117.061 48.16 116.773 48.16C116.431 48.16 116.089 47.764 115.729 46.972C115.513 46.504 115.279 45.964 114.991 45.316C114.703 44.668 114.217 43.408 113.533 41.536C113.101 40.438 112.723 39.304 112.399 38.116C112.273 37.702 112.147 37.234 112.021 36.712C111.823 36.766 111.625 36.82 111.427 36.874C110.185 37.252 108.871 37.558 107.503 37.774C106.927 37.864 106.387 37.918 105.847 37.936H105.343C104.983 37.882 104.803 37.684 104.803 37.324V37C104.875 36.766 105.073 36.568 105.397 36.388C105.541 36.406 105.685 36.406 105.865 36.406C106.981 36.406 108.205 36.262 109.537 35.974C110.257 35.83 110.995 35.668 111.751 35.47C111.643 34.966 111.535 34.408 111.427 33.814C111.355 33.382 111.247 32.95 111.103 32.536C111.103 32.212 111.265 32.032 111.607 31.996H111.895C112.219 32.068 112.435 32.32 112.507 32.716C112.561 33.148 112.651 33.67 112.759 34.246C112.795 34.57 112.831 34.876 112.885 35.164C113.281 35.038 113.695 34.912 114.127 34.768C114.343 34.66 114.559 34.588 114.739 34.534C114.883 34.534 115.027 34.588 115.207 34.66C115.423 34.786 115.531 34.894 115.531 35.002C115.531 35.128 115.477 35.254 115.387 35.398C115.261 35.542 115.117 35.65 114.937 35.74ZM114.631 31.744C114.811 31.744 115.099 31.834 115.477 32.014C115.765 32.14 116.035 32.302 116.305 32.482C116.629 32.698 116.863 32.86 116.971 33.004C117.061 33.148 117.115 33.328 117.115 33.508C117.079 33.706 116.989 33.832 116.863 33.886H116.773C116.719 33.886 116.629 33.868 116.503 33.796C115.981 33.598 115.567 33.436 115.243 33.31C114.901 33.202 114.577 33.076 114.289 32.968C114.055 32.878 113.947 32.644 113.947 32.284C114.019 31.96 114.235 31.78 114.631 31.744ZM111.751 42.724C111.751 42.904 111.661 43.066 111.481 43.228C111.103 43.894 110.095 44.686 108.457 45.586C107.557 46.072 106.693 46.504 105.901 46.9C105.667 47.008 105.505 47.08 105.397 47.116C105.127 47.134 104.893 47.152 104.677 47.152C104.353 47.134 104.155 46.882 104.083 46.414C104.083 46.198 104.245 46.018 104.605 45.838C104.821 45.766 105.073 45.676 105.397 45.586C105.937 45.37 106.459 45.118 106.981 44.866C106.981 44.758 107.017 44.614 107.053 44.452C107.143 44.128 107.215 43.768 107.269 43.372C107.305 43.102 107.323 42.832 107.323 42.562C107.323 42.04 107.251 41.626 107.125 41.32C107.071 41.212 107.035 41.14 107.035 41.068C106.531 41.248 106.063 41.356 105.631 41.428C105.397 41.518 105.235 41.554 105.127 41.554C104.983 41.554 104.839 41.482 104.731 41.338C104.623 41.194 104.569 41.014 104.569 40.762C104.569 40.546 104.749 40.366 105.073 40.258C105.631 40.096 106.063 39.97 106.387 39.862C107.071 39.682 107.935 39.394 108.943 38.998C109.339 38.854 109.627 38.764 109.843 38.71C109.951 38.692 110.059 38.674 110.149 38.674C110.329 38.674 110.455 38.746 110.509 38.872C110.527 38.944 110.545 39.034 110.545 39.106C110.545 39.232 110.437 39.412 110.239 39.646C109.735 39.988 109.105 40.294 108.349 40.582C108.295 40.618 108.259 40.636 108.223 40.636C108.259 40.708 108.313 40.78 108.349 40.834C108.493 41.212 108.565 41.68 108.565 42.256C108.565 42.67 108.511 43.138 108.403 43.66C108.349 43.858 108.295 44.038 108.259 44.218C109.573 43.534 110.599 42.904 111.337 42.346C111.517 42.346 111.643 42.418 111.715 42.544C111.733 42.58 111.751 42.652 111.751 42.724Z" fill="#2385C7"/>
<path d="M30.4789 32.4808C30.4789 32.4808 27.9925 35.5175 24.8158 32.4808C21.7347 29.6227 19.4934 32.4808 19.4934 32.4808L12.0716 46.4713C11.8565 47.233 12.3301 48.0161 13.1266 48.2205H37.7766C38.573 48.0161 39.0467 47.2344 38.833 46.4713L30.4789 32.4808ZM41.8453 45.7553L29.923 26.5659V26.5302L29.9021 15.2849H30.7254C31.9596 15.2849 32.9637 14.326 32.9637 13.1427C32.9637 11.9609 31.9596 11.002 30.7254 11.002H18.7792C17.5435 11.002 16.5408 11.9609 16.5408 13.1427C16.5408 14.326 17.5435 15.2849 18.7792 15.2849H19.4994L19.4755 26.533L9.15344 45.7553C8.51392 48.0404 9.93193 50.3884 12.3197 51H38.6791C41.0698 50.3884 42.4879 48.0404 41.8453 45.7553ZM38.2801 49.5681L12.7171 49.5409C11.1258 49.1322 10.1815 47.566 10.6073 46.0454L20.9876 26.5873L21.019 13.8573H18.7807C18.3698 13.8573 18.035 13.5372 18.035 13.1427C18.035 12.7483 18.3698 12.4296 18.7807 12.4296H30.7269C31.1378 12.4296 31.471 12.7497 31.471 13.1427C31.471 13.5372 31.1378 13.8573 30.7269 13.8573H28.4886L28.5259 26.5402L40.3885 46.0697C40.8158 47.5945 39.87 49.1608 38.2801 49.5681ZM26.2174 8.85984C26.2174 9.64868 26.8868 10.2889 27.7116 10.2889C28.5364 10.2889 29.2058 9.64868 29.2058 8.85984C29.2058 8.071 28.5379 7.43078 27.7116 7.43078C26.8853 7.43078 26.2174 8.06957 26.2174 8.85984ZM27.7116 5.28718C28.9488 5.28718 29.9529 4.32828 29.9529 3.14359C29.9529 1.9589 28.9488 1 27.7116 1C26.4744 1 25.4703 1.9589 25.4703 3.14359C25.4703 4.32828 26.4744 5.28718 27.7116 5.28718ZM21.7347 8.85984C22.561 8.85984 23.2289 8.21962 23.2289 7.43078C23.2289 6.64193 22.561 6.00171 21.7347 6.00171C20.9084 6.00171 20.2405 6.64193 20.2405 7.43078C20.2405 8.21962 20.9084 8.85984 21.7347 8.85984Z" fill="#2385C7"/>
</svg>
